<svg width="32" height="32" viewBox="0 0 32 32" fill="none" xmlns="http://www.w3.org/2000/svg">
<path d="M12.9087 27.3826C12.9087 26.9706 12.8931 25.6138 12.8931 23.932C12.8931 22.7555 13.2816 21.9884 13.7211 21.5973C10.9536 21.2769 8.04157 20.196 8.04157 15.36C8.04157 13.9831 8.52868 12.8569 9.32468 11.9755C9.19757 11.6555 8.76779 10.3729 9.44823 8.63597C9.44823 8.63597 10.4949 8.29642 12.8776 9.92842C14.9216 9.36526 17.0798 9.36526 19.1238 9.92842C21.5047 8.29642 22.5509 8.63597 22.5509 8.63597C23.2318 10.3729 22.8042 11.656 22.6745 11.9755C23.4727 12.8569 23.9553 13.9818 23.9553 15.36C23.9553 20.2066 21.0398 21.2742 18.2589 21.5858C18.7091 21.9778 19.1073 22.7462 19.1073 23.9249C19.1073 25.6102 19.0918 26.9693 19.0918 27.3826C19.0918 27.7213 19.3162 28.112 19.9496 27.9911C24.9029 26.3209 28.4727 21.5929 28.4727 16.0213C28.4727 9.05331 22.8873 3.40442 15.9985 3.40442C9.11223 3.40442 3.52734 9.05197 3.52734 16.0213C3.52734 21.5951 7.10068 26.3244 12.0616 27.992C12.6816 28.1084 12.9087 27.7186 12.9087 27.3826Z" fill="#9E9E9E"/>
<path d="M7.24023 21.3733C8.38157 21.72 8.83135 22.1 9.36868 23.0004C9.90423 23.9008 10.5331 24.9057 12.8945 24.3333" stroke="white" stroke-width="0.888889" stroke-miterlimit="10" stroke-linecap="round" stroke-linejoin="round"/>
</svg>
