<svg width="94" height="94" viewBox="0 0 94 94" fill="none" xmlns="http://www.w3.org/2000/svg">
<path d="M41.3432 2.65687C44.4674 -0.467328 49.5327 -0.467327 52.6569 2.65687L91.3432 41.3432C94.4674 44.4674 94.4673 49.5327 91.3432 52.6569L52.6569 91.3432C49.5327 94.4674 44.4674 94.4673 41.3432 91.3432L2.65687 52.6569C-0.467328 49.5327 -0.467327 44.4674 2.65687 41.3432L41.3432 2.65687Z" fill="#1A1A1A"/>
<path d="M62.9998 28C64.1043 28 64.9998 28.8954 64.9998 30V64C64.9998 65.1046 64.1043 66 62.9998 66H61.9906C60.886 66 59.9906 65.1046 59.9906 64V52.7559L60.1507 43.1964C60.1843 41.1955 57.5838 40.3911 56.4817 42.0614L49.3541 52.8633C48.984 53.4242 48.3568 53.7618 47.6848 53.7618H46.3698C45.6978 53.7618 45.0706 53.4242 44.7005 52.8632L37.4851 41.9278C36.3812 40.2548 33.7763 41.0651 33.8162 43.0691L34.0089 52.7559V64C34.0089 65.1046 33.1135 66 32.0089 66H30.9998C29.8952 66 28.9998 65.1046 28.9998 64V30C28.9998 28.8954 29.8952 28 30.9998 28H32.4399C33.1104 28 33.7363 28.336 34.1068 28.8948L45.3329 45.827C46.1239 47.0201 47.8756 47.0201 48.6667 45.827L59.8927 28.8948C60.2632 28.336 60.8891 28 61.5596 28H62.9998Z" fill="#FACF0F"/>
</svg>
