<svg width="40" height="40" viewBox="0 0 40 40" fill="none" xmlns="http://www.w3.org/2000/svg">
<path d="M25.4146 17.7465L25.9084 16.238C25.8771 16.7648 25.83 17.3793 25.7673 18.0817C25.7203 18.7681 25.6654 19.4784 25.6027 20.2127C25.54 20.947 25.4695 21.6892 25.3911 22.4394C25.3127 23.1737 25.2422 23.8521 25.1794 24.4746C25.1491 24.7758 25.1206 25.0582 25.094 25.322C25.0655 25.6035 25.0392 25.8638 25.0149 26.1028C24.9835 26.5657 24.9678 26.885 24.9678 27.0606C24.9678 27.6352 25.1481 28.1061 25.5087 28.4732C25.8849 28.8244 26.5198 29 27.4134 29H28.7067C28.8478 29 28.9418 28.976 28.9889 28.9282C29.0359 28.8643 29.0672 28.7686 29.0829 28.6408C29.0986 28.5291 29.1299 28.146 29.177 27.4915C29.224 26.8371 29.2789 26.039 29.3416 25.0972C29.42 24.1554 29.4905 23.1338 29.5532 22.0324C29.6316 20.931 29.7021 19.8695 29.7649 18.8479C29.8432 17.8103 29.8981 16.8845 29.9294 16.0704C29.9765 15.2404 30 14.6418 30 14.2747C30 13.9075 29.9687 13.5883 29.9059 13.3169C29.8432 13.0296 29.7256 12.7901 29.5532 12.5986C29.3808 12.407 29.1378 12.2634 28.8242 12.1676C28.5264 12.0559 28.1266 12 27.625 12H23.9567C23.7529 12 23.6118 12.0479 23.5334 12.1437C23.455 12.2235 23.4002 12.3113 23.3688 12.407C23.118 13.3967 22.9063 14.2188 22.7339 14.8732C22.6329 15.2848 22.5416 15.6532 22.4601 15.9786C22.4152 16.158 22.3732 16.3243 22.3342 16.4775C22.2244 16.9084 22.1304 17.2676 22.052 17.5549C21.9736 17.8423 21.903 18.1136 21.8403 18.369C21.7776 18.6085 21.7071 18.8718 21.6287 19.1591C21.5503 19.4465 21.4484 19.8136 21.323 20.2606C21.2676 20.4784 21.2041 20.7247 21.1326 20.9996C21.0627 21.2686 20.985 21.565 20.8997 21.8887C20.7273 22.5432 20.5157 23.3653 20.2649 24.3549C19.9984 22.8704 19.7789 21.5376 19.6064 20.3563C19.4497 19.1591 19.3008 18.1056 19.1597 17.1958C19.0342 16.2859 18.8932 15.5038 18.7364 14.8493C18.5796 14.1789 18.3758 13.6361 18.125 13.2211C17.8742 12.8061 17.5528 12.5028 17.1609 12.3113C16.769 12.1038 16.2673 12 15.6559 12H12.3639C12.2855 12 12.1992 12.0319 12.1052 12.0958C12.0111 12.1437 11.9641 12.2314 11.9641 12.3592C11.9641 12.6624 11.9563 12.9178 11.9406 13.1254C11.9406 13.3169 11.9328 13.5244 11.9171 13.7479C11.9171 13.9714 11.9014 14.2267 11.8701 14.5141C11.8578 14.7377 11.8409 15.0144 11.8192 15.3443C11.813 15.4384 11.8065 15.5367 11.7995 15.6394C11.7682 16.1024 11.7211 16.685 11.6584 17.3873C11.6114 18.0737 11.5487 18.9357 11.4703 19.9732C11.4345 20.4106 11.3987 20.8453 11.3629 21.2775C11.336 21.6024 11.3091 21.9259 11.2822 22.2479C11.2351 22.9821 11.1881 23.6606 11.1411 24.2831C11.0941 24.9056 11.0549 25.4484 11.0235 25.9113C11.0078 26.3582 11 26.6775 11 26.869C11 27.5714 11.1803 28.1061 11.5408 28.4732C11.9171 28.8244 12.552 29 13.4456 29H14.7389C14.8799 29 14.974 28.9362 15.021 28.8084C15.0837 28.6808 15.1151 28.3775 15.1151 27.8986C15.1151 27.4676 15.1229 26.9169 15.1386 26.2465C15.1543 25.5601 15.17 24.8258 15.1856 24.0437C15.2013 23.2455 15.217 22.4315 15.2327 21.6014C15.264 20.7714 15.2875 19.9972 15.3032 19.2789C15.3189 18.5606 15.3346 17.9301 15.3503 17.3873C15.3659 16.8446 15.3737 16.4615 15.3737 16.238C15.5775 17.0521 15.7735 17.962 15.9616 18.9676C16.1654 19.9573 16.3692 20.9709 16.573 22.0085C16.7768 23.046 16.9806 24.0676 17.1844 25.0732C17.4039 26.0629 17.6312 26.9648 17.8663 27.7789C17.9604 28.0183 18.0937 28.2178 18.2661 28.3775C18.4542 28.5371 18.6658 28.6648 18.901 28.7606C19.1518 28.8564 19.4183 28.9202 19.7005 28.9521C19.9827 28.984 20.257 29 20.5235 29C20.9468 29 21.2525 28.9681 21.4406 28.9042C21.6444 28.8244 21.7776 28.7206 21.8403 28.593C22.0441 28.0662 22.2715 27.4516 22.5223 26.7493C22.7731 26.031 23.0239 25.2808 23.2747 24.4986C23.5413 23.7164 23.7999 22.9183 24.0508 22.1042C24.3016 21.2742 24.5446 20.492 24.7797 19.7578C25.0149 19.0235 25.2265 18.3531 25.4146 17.7465Z" fill="black"/>
<path fill-rule="evenodd" clip-rule="evenodd" d="M40 20C40 31.0457 31.0457 40 20 40C8.95432 40 0 31.0457 0 20C0 8.95432 8.95432 0 20 0C31.0457 0 40 8.95432 40 20ZM37.1429 20.1099C37.1429 29.517 29.517 37.1429 20.1099 37.1429C10.7029 37.1429 3.07693 29.517 3.07693 20.1099C3.07693 10.7029 10.7029 3.07693 20.1099 3.07693C29.517 3.07693 37.1429 10.7029 37.1429 20.1099Z" fill="black"/>
</svg>
