<svg width="109" height="109" viewBox="0 0 109 109" fill="none" xmlns="http://www.w3.org/2000/svg">
<path d="M48.8432 2.65686C51.9674 -0.467331 57.0327 -0.467325 60.1569 2.65687L106.343 48.8432C109.467 51.9674 109.467 57.0327 106.343 60.1569L60.1569 106.343C57.0327 109.467 51.9674 109.467 48.8432 106.343L2.65686 60.1569C-0.467331 57.0327 -0.467325 51.9674 2.65687 48.8432L48.8432 2.65686Z" fill="#1A1A1A"/>
<path d="M48.8432 3.65687C51.9674 0.532676 57.0327 0.532675 60.1569 3.65687L105.343 48.8432C108.467 51.9674 108.467 57.0327 105.343 60.1569L60.1569 105.343C57.0327 108.467 51.9674 108.467 48.8432 105.343L3.65687 60.1569C0.532676 57.0327 0.532675 51.9674 3.65687 48.8432L48.8432 3.65687Z" fill="#FACF0F"/>
<path d="M49.0295 10.6569C52.1536 7.53269 57.219 7.53269 60.3432 10.6569L99.0295 49.3432C102.154 52.4674 102.154 57.5327 99.0294 60.6569L60.3432 99.3432C57.219 102.467 52.1536 102.467 49.0295 99.3432L10.3432 60.6569C7.21897 57.5327 7.21897 52.4674 10.3432 49.3432L49.0295 10.6569Z" fill="#1A1A1A"/>
<path d="M70.6861 36C71.7906 36 72.6861 36.8955 72.6861 38V72C72.6861 73.1046 71.7906 74 70.6861 74H69.6769C68.5723 74 67.6769 73.1046 67.6769 72V60.7559L67.837 51.1964C67.8705 49.1956 65.2701 48.3911 64.168 50.0614L57.0404 60.8633C56.6703 61.4242 56.0431 61.7618 55.3711 61.7618H54.0561C53.3841 61.7618 52.7569 61.4242 52.3868 60.8633L45.1714 49.9279C44.0675 48.2548 41.4626 49.0651 41.5025 51.0691L41.6952 60.7559V72C41.6952 73.1046 40.7998 74 39.6952 74H38.6861C37.5815 74 36.6861 73.1046 36.6861 72V38C36.6861 36.8955 37.5815 36 38.6861 36H40.1262C40.7967 36 41.4226 36.336 41.7931 36.8949L53.0191 53.827C53.8102 55.0201 55.5619 55.0201 56.353 53.827L67.579 36.8949C67.9495 36.336 68.5754 36 69.2459 36H70.6861Z" fill="#FACF0F"/>
</svg>
