<?xml version="1.0" standalone="no"?>
<!DOCTYPE svg PUBLIC "-//W3C//DTD SVG 20010904//EN"
 "http://www.w3.org/TR/2001/REC-SVG-20010904/DTD/svg10.dtd">
<svg version="1.0" xmlns="http://www.w3.org/2000/svg"
 width="700.000000pt" height="700.000000pt" viewBox="0 0 700.000000 700.000000"
 preserveAspectRatio="xMidYMid meet">
<metadata>
Created by potrace 1.14, written by Peter Selinger 2001-2017
</metadata>
<g transform="translate(0.000000,700.000000) scale(0.100000,-0.100000)"
fill="#000000" stroke="none">
<path d="M3376 6964 c-144 -35 -54 50 -1722 -1618 -1674 -1675 -1583 -1578
-1619 -1727 -19 -81 -19 -157 0 -238 36 -149 -55 -52 1619 -1727 1675 -1674
1578 -1583 1727 -1619 81 -19 157 -19 238 0 149 36 52 -56 1727 1619 1674
1675 1583 1578 1619 1727 19 81 19 157 0 238 -36 149 55 52 -1619 1727 -1337
1337 -1549 1545 -1602 1572 -114 59 -246 76 -368 46z m273 -73 c33 -10 82 -31
108 -46 66 -38 3020 -2987 3074 -3069 107 -163 107 -389 0 -552 -54 -82 -3008
-3031 -3074 -3069 -154 -88 -360 -88 -514 0 -66 38 -3020 2987 -3074 3069
-107 163 -107 389 0 552 54 82 3008 3031 3074 3069 115 66 281 85 406 46z"/>
<path d="M3403 6455 c-152 -33 -75 38 -1504 -1392 -1280 -1282 -1306 -1309
-1337 -1379 -47 -104 -60 -207 -39 -309 36 -175 -62 -68 1381 -1511 1410
-1410 1335 -1340 1486 -1379 129 -34 297 -5 405 70 28 19 631 616 1341 1327
1401 1404 1321 1318 1360 1470 21 83 14 211 -16 290 -12 32 -39 84 -60 115
-23 35 -549 567 -1322 1339 -1182 1181 -1288 1284 -1348 1313 -70 34 -181 61
-245 60 -22 0 -68 -7 -102 -14z m-760 -1788 c15 -10 188 -260 401 -581 205
-310 385 -572 400 -581 14 -9 41 -17 59 -18 79 -2 71 -13 476 596 209 315 390
578 403 586 13 8 57 16 98 18 85 5 128 -11 164 -60 21 -28 21 -31 21 -1160 l0
-1132 -22 -31 c-31 -44 -70 -57 -153 -52 -63 3 -73 7 -103 36 l-32 32 0 720
c-1 711 -1 720 -21 747 -28 37 -60 53 -110 53 -28 0 -51 -7 -69 -22 -16 -12
-137 -187 -270 -388 -205 -311 -247 -368 -276 -381 -49 -20 -169 -18 -203 4
-15 10 -135 182 -269 385 -134 202 -256 377 -271 390 -53 41 -143 24 -182 -35
-17 -26 -18 -48 -14 -328 3 -165 5 -487 5 -715 0 -413 0 -415 -22 -446 -32
-44 -70 -57 -154 -52 -67 4 -73 6 -105 41 l-34 37 0 1133 0 1134 23 34 c13 19
38 40 57 46 50 18 170 12 203 -10z"/>
</g>
</svg>
