<svg width="15" height="15" viewBox="0 0 15 15" fill="none" xmlns="http://www.w3.org/2000/svg">
<path d="M3.8882 8.46518H6.45222V11.0292C6.45222 11.3243 6.56946 11.6074 6.77815 11.8161L7.11951 11.4747L6.77815 11.8161C6.98685 12.0248 7.26989 12.142 7.56502 12.142C7.86016 12.142 8.1432 12.0248 8.3519 11.8161C8.56059 11.6074 8.67783 11.3243 8.67783 11.0292V8.46518H11.2419C11.537 8.46518 11.82 8.34794 12.0287 8.13925C12.2374 7.93056 12.3547 7.64751 12.3547 7.35238C12.3547 7.05724 12.2374 6.7742 12.0287 6.56551C11.82 6.35681 11.537 6.23957 11.2419 6.23957H8.67783V3.67555C8.67783 3.38041 8.56059 3.09737 8.3519 2.88868C8.14321 2.67999 7.86016 2.56274 7.56502 2.56274C7.26989 2.56274 6.98684 2.67999 6.77815 2.88868C6.56946 3.09737 6.45222 3.38041 6.45222 3.67555V6.23957H3.8882C3.59306 6.23957 3.31001 6.35682 3.10132 6.56551C2.89263 6.7742 2.77539 7.05724 2.77539 7.35238C2.77539 7.64751 2.89263 7.93056 3.10132 8.13925C3.31001 8.34794 3.59306 8.46518 3.8882 8.46518Z" fill="#333333" stroke="#333333"/>
</svg>
