<svg width="12" height="12" viewBox="0 0 12 12" fill="none" xmlns="http://www.w3.org/2000/svg">
<path d="M1.58114 4.91679L1.93469 5.27035L1.58114 4.91679C1.36661 5.13132 1.24609 5.42228 1.24609 5.72566C1.24609 6.02905 1.36661 6.32001 1.58114 6.53453C1.79566 6.74906 2.08662 6.86958 2.39001 6.86958H5.10958V9.58915C5.10958 9.89253 5.2301 10.1835 5.44463 10.398C5.65915 10.6125 5.95011 10.7331 6.2535 10.7331C6.55688 10.7331 6.84784 10.6125 7.06236 10.398C7.27689 10.1835 7.39741 9.89253 7.39741 9.58915V6.86958H10.117C10.4204 6.86958 10.7113 6.74906 10.9259 6.53453C11.1404 6.32001 11.2609 6.02905 11.2609 5.72566C11.2609 5.42228 11.1404 5.13132 10.9259 4.91679C10.7113 4.70227 10.4204 4.58175 10.117 4.58175H7.39741V1.86218C7.39741 1.55879 7.27689 1.26783 7.06237 1.05331C6.84784 0.838781 6.55688 0.718262 6.2535 0.718262C5.95011 0.718262 5.65915 0.838781 5.44463 1.05331L5.79818 1.40686L5.44463 1.05331C5.2301 1.26783 5.10958 1.55879 5.10958 1.86218V4.58175H2.39001C2.08662 4.58175 1.79566 4.70227 1.58114 4.91679Z" fill="#333333" stroke="#333333"/>
</svg>
